<?xml version="1.0" encoding="utf-8"?>
<!-- Generator: Adobe Illustrator 25.0.0, SVG Export Plug-In . SVG Version: 6.00 Build 0)  -->
<svg version="1.1" id="圖層_1" xmlns="http://www.w3.org/2000/svg" xmlns:xlink="http://www.w3.org/1999/xlink" x="0px" y="0px"
	 viewBox="0 0 1980 1576" style="enable-background:new 0 0 1980 1576;" xml:space="preserve">
<style type="text/css">
	.st0{fill:#E38D20;}
	.st1{fill:#C30D23;}
	.st2{fill:#FFFFFF;}
	.st3{font-family:'Alef-Bold';}
	.st4{font-size:180px;}
	.st5{font-family:'Broadway';}
	.st6{font-size:90px;}
	.st7{fill:none;stroke:#000000;stroke-miterlimit:10;}
	.st8{font-family:'GenJyuuGothic-Monospace-Bold';}
	.st9{font-size:100px;}
	.st10{fill:none;}
</style>
<g>
	<g>
		<path class="st0" d="M684,465.1l-2.8-3.3l9.8-8.3l3.5,4.2C694.6,458,684.5,464.7,684,465.1z M702,476.8
			c-5.3-6.3-10.7-12.7-16.2-18.8l10.6-9c11.3,13.9,21.5,26.1,33.9,40.2l-10.6,9C714.1,491.1,708,483.9,702,476.8z M718.9,472.5
			l-6.8,5.8l-2.9-3.4c7.6-5.8,15.7-12.4,7.1-22c-7.2-9.6-15.9-1.7-22.2,4.1l-3-3.5l6.8-5.7C720.8,426.3,743.7,452.7,718.9,472.5z
			 M723.3,487.9l9.7-6.6l2.8,3.3L715.2,502l-2.8-3.3C714.3,496.8,721.2,489.3,723.3,487.9z"/>
		<path class="st0" d="M741.1,415.9l7-4.4l43.1,35.2l-11.6,7.2l-34.3-29.3l0.4-5l11.8,48l-4,2.5L741.1,415.9z M747.3,469
			c0.8-0.6,6.8-5.9,7.6-6.1c0,0,7.1-3,7.1-3l2.3,3.6l-14.7,9.1L747.3,469z M751.1,448.2l18.3-11.4l4,3l-21,13.1L751.1,448.2z
			 M770.9,454.5l7-5.8c2.7-2.1,10.7-5.8,13.9-7.2l2.2,3.5L773,458L770.9,454.5z"/>
		<path class="st0" d="M776.5,400.2l-1.7-3.9l11.8-5.1l2.2,5C788.6,396.4,777,400,776.5,400.2z M790.3,416.5
			c-3.3-7.5-6.6-15.2-10.1-22.6l12.8-5.6c6.8,16.5,13.2,31.2,21,48.2l-12.8,5.6C797.8,433.7,794,425,790.3,416.5z M807.7,417.3
			l-8.2,3.6l-1.8-4.1c8.9-3.4,18.6-7.3,13.1-19.1c-4.2-11.3-14.8-6.1-22.4-2.4l-1.8-4.2l8.1-3.5
			C822.8,373.5,837.2,405.4,807.7,417.3z M807.5,433.3l11.1-3.5l1.7,3.9l-24.7,10.8l-1.7-3.9C796.4,439.2,805.1,434.1,807.5,433.3z"
			/>
		<path class="st0" d="M836,422l7.6-3.3c0.7-0.4,8-1.1,9-1.2l1.1,4.1l-16.6,4.5L836,422z M845.3,369.4l8-2.2l31.2,46.1l-13.2,3.6
			l-24.4-37.9l1.8-4.7l-2.5,49.4l-4.6,1.2L845.3,369.4z M845.5,403.2l20.8-5.6l3,4l-23.9,6.5L845.5,403.2z M862.7,415l8.4-3.5
			c3.2-1.2,11.9-2.5,15.4-2.9l1.1,4l-23.8,6.5L862.7,415z"/>
		<path class="st0" d="M881.8,364.7l-0.5-4.3l25.6-3l0.5,4.3l-10,2.4C895.1,364.6,884.3,364.7,881.8,364.7z M904.7,393.3l-21.3-33.1
			l15.3-1.8l15.7,26.2l-2.5,0.6l9.6-29.5l5.4-0.6l-13.2,37.2L904.7,393.3z M912.8,404.1l12.1-0.2l0.5,4.3l-27.2,3.2l-0.5-4.3
			C900.2,406.6,910.4,404.2,912.8,404.1z M902.2,386l13.3-1.6c1.4,12,2,17.3,3.1,24.5l-13.8,1.6C904.2,403.4,903.6,398.1,902.2,386z
			 M921.7,361.2l-7.6-0.3l-0.5-4.3l16.4-1.9l0.5,4.3C929.2,359.4,923,361.3,921.7,361.2z"/>
		<path class="st0" d="M935.2,402.2c1-0.1,8.9-1.1,9.7-0.8c0,0,7.5,1.5,7.5,1.5l-0.2,4.3l-17.2-0.7L935.2,402.2z M959.9,354.8
			l8.3,0.3l15.8,53.4l-13.7-0.6l-11.9-43.5l3.2-3.9l-17.2,46.3l-4.7-0.2L959.9,354.8z M950,387.2l21.6,0.9l1.6,4.7l-24.7-1
			L950,387.2z M962.7,403.5l9.1-0.8c3.4-0.2,12.1,1.2,15.6,1.8l-0.2,4.1l-24.6-1L962.7,403.5z"/>
		<path class="st0" d="M1038.1,412.2c1.7,0.4,9.9,2.1,11.3,2.8c0,0,7,3.8,7,3.8l-1.5,4l-18.3-6.7L1038.1,412.2z M1061.9,369.5
			l4.3,1.6c-4.1,12.4-12.8,37.4-17.4,49.6l-4.9-1.8L1061.9,369.5z M1055.3,367.1l10.7,3.9l-1.8,5.2c-0.3,0.1-9.9-4.8-10.4-5.1
			L1055.3,367.1z M1062.4,369.7l12.8,4.6l0.2,41.5l-2.5-0.9l26.1-31.9l5,1.8l-35.3,43.1l-5.8-2.1L1062.4,369.7z M1077.7,426.6
			l10,2.4c2.4,0.6,11.6,5.2,14,6.4l-1.5,4l-24-8.7L1077.7,426.6z M1089.8,411l10.3-27.6l12.5,4.6c-6.3,16.2-12.4,33-18,49.4l-13-4.8
			C1084.6,425,1087.4,417.2,1089.8,411z M1106.1,385.6l11.8,4.3l-1.5,4c-0.7-0.2-12-2.9-12.2-3.2L1106.1,385.6z"/>
		<path class="st0" d="M1117.5,443.9l9.8,6.7l-2,3.8l-22.7-12.3l2-3.8C1106.3,439,1116.4,443,1117.5,443.9z M1121.2,420.6
			c3.9-7.2,7.9-14.6,11.6-21.9l12.2,6.6c-8.5,15-17,30.8-25,46.2l-12.2-6.6C1112.4,437.1,1116.8,428.8,1121.2,420.6z M1125.6,399.6
			l2-3.8l22.7,12.3l-2,3.8c-1.6-0.7-11.9-4.8-13.1-5.7C1135.2,406.2,1125.6,399.6,1125.6,399.6z"/>
		<path class="st0" d="M1142.5,458.8l-3.1,4.5l-10.6-7.3l2.4-3.5C1131.8,452.8,1142.4,458.5,1142.5,458.8z M1163.5,416.1l11.4,7.9
			c-10.4,14.4-19.7,27.9-29.9,43.2l-11.4-7.9C1144.5,444.3,1153.6,431.1,1163.5,416.1z M1172.5,467.1l-9.6,12.4l-23.5-16.2l2.6-3.8
			l21.3,14.7l-7.6,0.3l11.5-11.1L1172.5,467.1z M1156.2,416.3l2.4-3.5l21.7,15l-2.4,3.5c-1.9-1.1-11.3-6.1-12.8-7.4
			C1165.1,423.9,1156.2,416.3,1156.2,416.3z"/>
		<path class="st0" d="M1179.5,486.7l6.8,8l-2.9,3.1l-17.9-16.6l2.9-3.1C1169.8,479.2,1178.6,485.5,1179.5,486.7z M1188.9,465.1
			c5.6-6,11.3-12.1,16.7-18.4l9.8,9.1c-12.1,12.5-23.9,25.2-35.7,38.5l-9.8-9.1C1176.2,478.8,1182.6,471.9,1188.9,465.1z
			 M1187,477.1l44.4-6.4l4.4,4l-52.6,6.5L1187,477.1z M1190.1,498.2c1,0.8,9.5,6.8,10,7.7c0,0,6.9,8,6.9,8l-2.9,3.2l-16.9-15.7
			L1190.1,498.2z M1213.1,475.3l-10.7,40.2l-10.7-9.9l8.4-28.4L1213.1,475.3z M1198.3,445.8l2.9-3.1l18.5,17.1l-2.9,3.1
			c-1.4-1.1-9.9-7.2-10.8-8.4C1206.1,454.6,1198.3,445.8,1198.3,445.8z M1221.6,467.4l2.9-3.1l13.6,12.6l-2.9,3.1
			c-1.4-1-8.3-5.8-9.4-6.9C1225.7,473,1221.6,467.4,1221.6,467.4z"/>
	</g>
</g>
<path class="st1" d="M1009,577.9c-35.3,23.2-31,79.9-7,106.1c2.5,2.9,30.9,22.3,37,22.7c20.7,7.5,33.6-14.1,30-30.9
	c0-6.5-8.2-26.8-9.9-37.2c-1.4-5-2.7-19.9-2.2-27.9c0.1-1.8,0.7-20.9,2.1-23.4c1.6-4.4,17.5-15.3,22-18.5c5.8-4.6,6.8-8.1,14-19.6
	c11-17.4,9.5-22.7,14-25.8c14-9.4-26.9-13.4-51.1-7.2c-10.2,2.6-18.8,6.8-21,8.2c-12.4,7.8-19.8,23.7-22,36
	C1014,566.3,1013.9,572.6,1009,577.9z"/>
<path class="st1" d="M799,524c29.4,3.3,71.6,2.1,80,35c0.9,5.9-0.7,11.7,7,12c21.1-3.8,44.6,22.3,43,46c0.7,5-5.4,35.9-10,44
	c-7.1,21-34.2,42.8-53,45c-8.3,1.7-13,2.6-17,0c-14.5-10.9,1.2-71,1-75c0,0-0.2-18,1-25c0.9-5.3,1.4-8.4,0-11c-2.4-4.5-8.6-4.7-14-6
	c-25.8-6-41.6-43.2-39-60"/>
<path class="st1" d="M997,459c-4,0.9-1.6,8.9-11,33c-4.5,13.6-6.9,17-13,28c1.2,7.1,33.9,14.3,42,5
	C1023.2,512.6,1015.6,463.4,997,459z"/>
<path class="st2" d="M893.7,621.6c21.3,0.1,21.3,32.4,0,32.5C872.5,654,872.5,621.7,893.7,621.6z"/>
<path class="st2" d="M1018.3,621.1c21.3,0.1,21.3,32.4,0,32.5C997.1,653.6,997.1,621.2,1018.3,621.1z"/>
<path class="st1" d="M908.2,459c4,0.9,1.6,8.9,11,33c4.5,13.6,6.9,17,13,28c-1.2,7.1-33.9,14.3-42,5
	C882,512.7,889.7,463.4,908.2,459z"/>
<path class="st1" d="M851.9,732.8c32.5-34.4,88.6,9.1,136-12c31.3-7.7,65.3,3.7,74.9,38.2c5.9,21.4,1.3,43.1-20.9,56.8
	c-28.4,13.5-49.4-4.6-95.1-3.2c-29,1.8-48.9,12.8-67.9,8.1C840,809.9,827,761.1,851.9,732.8z"/>
<text transform="matrix(1 0 0 1 498.8213 820.4336)" class="st1 st3 st4">600</text>
<text transform="matrix(1.1776 0 0 1 864 793.0254)" class="st2 st5 st6">c  c</text>
<text transform="matrix(1.1776 0 0 1 864 793.0254)" class="st7 st5 st6">c  c</text>
<text transform="matrix(0.8968 0 0 1 1082.2607 814.083)" class="st1 st8 st9">木瓜牛奶</text>
<rect x="1614.9" y="986.4" class="st10" width="13.8" height="5.5"/>
<g>
	<g>
		<path d="M847.4,922.6c0.5-4.5-4.9-6.8-9.8-8.6c-22.5-8.4-3.8-32,12.9-19.9l-0.4,7.8h-3.6l-1.7-9.1l3.8,2v3
			c-12.3-12.2-26,6.8-7.4,11.5c25.1,10.4,3.2,32-14.8,20.4l0.4-8.4h3.6l1.6,9.2l-3.9-1.7V926C833.8,931.7,847.3,931.6,847.4,922.6z"
			/>
		<path d="M861.3,932c0.2-6.1,0.3-16.6,0-23l-4.9-0.5v-2.1l9.1-3.6l0.9,0.6c-0.2,8.5-0.3,20.5,0,28.6H861.3z M870.5,930v2.1h-13.8
			V930c0.9-0.1,7.1-1.4,7.8-1.2C864.5,928.8,870.5,930,870.5,930z M859.8,892.3c-0.1-5,8.1-5,7.9,0
			C867.9,897.2,859.7,897.2,859.8,892.3z"/>
		<path d="M879.4,932c0.2-6.1,0.3-16.6,0-23l-4.8-0.5v-2.1l8.2-3.6l0.9,0.6c1.2,8.5,0.5,20.5,0.9,28.6L879.4,932L879.4,932z
			 M888.7,930v2.1h-13.8V930c0.9-0.1,7.1-1.4,7.8-1.2C882.7,928.8,888.7,930,888.7,930z M902.6,913.9c0,5.2,0,13.7,0.2,18.1h-5.2
			c0.2-4.3,0.2-12.5,0.2-17.6c0.4-10.5-8.2-8.4-13.9-3.2h-1.3v-2.7h3.1l-2.6,1.1C889.3,901.2,903.5,898.6,902.6,913.9z M901,928.8
			l6,1.2v2.1h-13.8V930C894,929.8,900.3,928.5,901,928.8z"/>
		<path d="M916.3,917.3c-0.7,11.9,12.4,15.6,18.1,7l1.4,0.7c-4.7,13.7-26.1,8-24.5-7.2c0-9.4,6.6-15.1,13.7-15.1
			c5.5-1,15.1,7.8,7.9,10c-3.8,0.1-3.6-5.6-4.7-8l2.8,2.2C923.4,903.1,916.3,906.9,916.3,917.3z"/>
		<path d="M965.5,914.3c0,1.4-0.2,2.6-0.4,3.4h-22.1v-2.5h14.3c2.9,0,3.5-1.4,3.5-3.1c0-3.4-2.9-6.5-6.7-6.5
			c-3.8,0-8.3,3.2-8.3,11.8c-0.8,11.9,12.2,15.3,18.2,7.4l1.4,1.1c-6,12.2-26,7.4-24.7-7.7C939.5,901.2,964.9,896.3,965.5,914.3z"/>
		<path d="M1009.1,930v2.1H987V930C995.6,928.1,1000.4,928.1,1009.1,930z M999.8,892.8l0.8,0.6c-0.4,11.6-0.3,27.2-0.1,38.7h-5.2
			c0.3-8.3,0.2-25.9,0.2-34.4l-8,0.7v-2.4L999.8,892.8z"/>
		<path d="M1027.2,913c3.5,0,6.1-1.3,8.5-4.3l1,0.4c-4.5,11.8-22.9,8.9-22.6-4.3c0-7.4,5.2-12.4,12.7-12.4
			c21.4,2.1,13.7,38.1-9.3,40.8l-0.6-2.2c12.8-4.2,17.1-11,17.1-21.9c0-9.7-3-14-7.5-14C1016.8,894.7,1016.7,914.3,1027.2,913z"/>
		<path d="M1066.8,896.2l1,1.8h-22.6v-4.8h24.7c2.2-0.3-14.2,38.1-14.3,38.8h-4.7l-0.6-0.6L1066.8,896.2z"/>
		<path d="M1094.3,920.8c0.3-10.8-9.8-11.1-15.5-5.5l-1-0.8c6.2-10.2,22-7.5,21.7,5.4c0,8.6-5.2,12.9-12.2,12.9
			c-21.6-2-15.3-39.7,9.9-40.4l0.4,1.9c-12.8,3.1-18,9.6-18,20.6c0,10.3,3,15.2,7.9,15.2C1091.7,930.1,1094.3,927.1,1094.3,920.8z"
			/>
	</g>
</g>
</svg>
