<svg xmlns="http://www.w3.org/2000/svg" viewBox="0 0 942.16 578.54"><defs><style>.cls-1{fill:#e38d20;}.cls-2,.cls-4,.cls-7{fill:#c30d23;}.cls-3,.cls-5{fill:#fff;}.cls-4,.cls-5,.cls-6,.cls-7{isolation:isolate;}.cls-4{font-size:180px;font-family:Alef-Bold, Alef;}.cls-4,.cls-7{font-weight:700;}.cls-5,.cls-6{font-size:90px;font-family:Broadway;}.cls-6{fill:none;stroke:#000;stroke-miterlimit:10;}.cls-7{font-size:100px;font-family:GenJyuuGothic-Monospace-Bold, Gen Jyuu Gothic Monospace;}</style></defs><g id="圖層_2" data-name="圖層 2"><g id="圖層_1-2" data-name="圖層 1"><path class="cls-1" d="M185.21,110.37l-2.77-3.28,9.84-8.3,3.54,4.2C195.82,103.25,185.68,110,185.21,110.37Zm17.93,11.71c-5.31-6.3-10.68-12.66-16.17-18.8l10.63-9c11.25,13.9,21.53,26.1,33.9,40.17l-10.63,9C215.26,136.4,209.15,129.17,203.14,122.08Zm16.92-4.26-6.85,5.78-2.89-3.43c7.59-5.77,15.74-12.36,7.12-22-7.2-9.61-15.93-1.65-22.18,4.14l-3-3.52,6.78-5.72C222,71.59,244.9,98,220.06,117.82Zm4.41,15.38,9.65-6.57,2.77,3.28-20.56,17.35L213.56,144C215.45,142,222.37,134.63,224.47,133.2Z"/><path class="cls-1" d="M242.29,61.17l7-4.36L292.4,92l-11.61,7.22L246.51,70l.41-5,11.84,48-4,2.5Zm6.23,53.09c.79-.63,6.78-5.89,7.57-6.12l7.08-3,2.27,3.65-14.65,9.11Zm3.75-20.74,18.35-11.4,4,3-21,13.06ZM272,99.84l7-5.79c2.73-2.07,10.71-5.79,13.9-7.23l2.18,3.5-20.94,13Z"/><path class="cls-1" d="M277.63,45.49l-1.71-3.94,11.8-5.14,2.2,5C289.82,41.7,278.19,45.29,277.63,45.49Zm13.83,16.33c-3.29-7.55-6.61-15.18-10.12-22.64l12.76-5.56c6.81,16.53,13.16,31.16,21,48.18l-12.76,5.56C299,79,295.17,70.34,291.46,61.82Zm17.43.76-8.21,3.58-1.79-4.11c8.93-3.37,18.62-7.35,13.11-19-4.15-11.26-14.79-6.13-22.45-2.38l-1.84-4.22,8.14-3.54C324,18.82,338.37,50.71,308.89,62.58Zm-.16,16,11.13-3.54L321.58,79,296.91,89.74l-1.72-3.94C297.55,84.48,306.31,79.35,308.73,78.59Z"/><path class="cls-1" d="M337.18,67.32,344.81,64c.74-.43,8-1.06,9-1.2L355,67l-16.64,4.51Zm9.3-52.64,8-2.16L385.6,58.65l-13.2,3.58L348,24.35l1.83-4.68L347.36,69l-4.58,1.24Zm.25,33.85,20.85-5.65,3,4-23.88,6.47Zm17.12,11.74,8.41-3.52c3.21-1.19,11.92-2.46,15.39-2.93l1.08,4-23.8,6.45Z"/><path class="cls-1" d="M382.94,10l-.5-4.27,25.63-3,.5,4.27-10,2.38C396.31,9.91,385.48,10,382.94,10Zm23,28.58L384.59,5.5l15.26-1.8L415.5,29.87l-2.45.64L422.66,1,428,.38,414.86,37.55ZM414,49.43l12.12-.22.5,4.27-27.22,3.21-.5-4.27C401.4,51.87,411.54,49.45,414,49.43ZM403.38,31.29l13.34-1.57c1.41,12,2,17.28,3.13,24.55L406,55.9C405.43,48.73,404.81,43.4,403.38,31.29ZM422.9,6.52l-7.64-.31-.5-4.27L431.2,0l.5,4.27C430.35,4.64,424.2,6.61,422.9,6.52Z"/><path class="cls-1" d="M436.36,47.49c1-.07,8.91-1.06,9.7-.8l7.53,1.51-.18,4.29-17.23-.71ZM461.08.1l8.26.34,15.8,53.37-13.66-.56L459.61,9.77l3.16-3.91L445.56,52.18l-4.74-.2Zm-9.95,32.35,21.58.89,1.61,4.73-24.72-1ZM463.92,48.8,473,48c3.42-.17,12.11,1.24,15.56,1.84l-.17,4.12-24.64-1Z"/><path class="cls-1" d="M539.32,57.5c1.68.4,9.95,2.09,11.32,2.84l7,3.83-1.47,4-18.34-6.68ZM563.1,14.79l4.3,1.57C563.29,28.8,554.57,53.75,550,66l-4.87-1.77Zm-6.6-2.41,10.74,3.91-1.77,5.21c-.28.12-9.85-4.8-10.44-5.08ZM563.56,15l12.76,4.65.2,41.52-2.5-.91,26.11-31.93,5,1.81L569.75,73.16,564,71.05Zm15.31,57,10,2.38c2.43.59,11.56,5.21,14,6.36l-1.47,4L577.4,76Zm12.06-15.65L601.28,28.7l12.54,4.57c-6.28,16.17-12.43,33-18,49.39l-13-4.75C585.82,70.29,588.62,62.45,590.93,56.26Zm16.35-25.37,11.83,4.31-1.47,4c-.67-.19-12-2.89-12.24-3.18Z"/><path class="cls-1" d="M618.72,89.2l9.85,6.68-2,3.78L603.82,87.4l2-3.78C607.44,84.31,617.55,88.3,618.72,89.2Zm3.71-23.31C626.35,58.64,630.3,51.32,634,44l12.24,6.61c-8.5,15-17,30.82-25,46.25L609,90.2C613.54,82.4,618,74.06,622.43,65.89Zm4.32-21,2-3.78L651.5,53.41l-2,3.78c-1.59-.7-11.9-4.8-13.06-5.69Z"/><path class="cls-1" d="M643.71,104.07l-3.12,4.52L630,101.28l2.44-3.54C633,98.07,643.61,103.76,643.71,104.07Zm21-42.68,11.45,7.9c-10.38,14.39-19.73,27.95-29.85,43.25l-11.45-7.9C645.72,89.54,654.82,76.37,664.71,61.39Zm8.94,51-9.56,12.44-23.5-16.22,2.6-3.77,21.29,14.7-7.6.32,11.49-11.12ZM657.4,61.56,659.84,58l21.71,15-2.44,3.54c-1.92-1.09-11.35-6.09-12.84-7.4Z"/><path class="cls-1" d="M680.7,132l6.81,7.95-2.92,3.15-17.87-16.56,2.92-3.15C671,124.44,679.79,130.83,680.7,132Zm9.41-21.64c5.6-6,11.26-12.15,16.68-18.35l9.78,9.06c-12.11,12.54-23.9,25.24-35.73,38.55l-9.78-9.06C677.38,124.13,683.78,117.15,690.11,110.35Zm-2,12,44.45-6.44,4.37,4-52.63,6.5Zm3.16,21.11c1,.8,9.47,6.84,10,7.68l6.9,8-2.92,3.15-17-15.71Zm23-22.89-10.66,40.16-10.72-9.94,8.38-28.43ZM699.53,91.13,702.45,88,721,105.13,718,108.28c-1.38-1.07-9.88-7.19-10.8-8.38Zm23.21,21.51,2.92-3.15,13.58,12.58-2.92,3.15c-1.44-1-8.3-5.78-9.41-6.93Z"/><path class="cls-2" d="M510.21,223.17c-35.29,23.23-31,79.91-7,106.09,2.54,2.92,30.89,22.26,37,22.66,20.65,7.45,33.64-14.05,30-30.9,0-6.46-8.21-26.81-9.95-37.23-1.38-5-2.71-19.89-2.17-27.93.1-1.79.73-20.89,2.1-23.42,1.63-4.44,17.54-15.3,22-18.54,5.76-4.64,6.8-8.14,14-19.57,11-17.41,9.49-22.7,14-25.75,14-9.41-26.89-13.37-51.07-7.21a88.58,88.58,0,0,0-21,8.24c-12.41,7.78-19.8,23.7-22,36C515.14,211.62,515.07,217.85,510.21,223.17Z"/><path class="cls-2" d="M300.18,169.29c29.39,3.33,71.61,2.07,80,35,.92,5.88-.7,11.7,7,12,21.11-3.76,44.62,22.33,43,46,.74,5-5.42,35.87-10,44-7.15,21-34.17,42.77-53,45-8.35,1.68-13.05,2.63-17,0-14.55-10.94,1.16-71,1-75,0,0-.17-18,1-25,.89-5.34,1.4-8.37,0-11-2.38-4.48-8.59-4.65-14-6-25.82-6-41.58-43.24-39-60"/><path class="cls-2" d="M498.18,104.29c-4,.85-1.59,8.89-11,33-4.46,13.63-6.92,17-13,28,1.19,7.12,33.88,14.31,42,5C524.37,157.92,516.75,108.64,498.18,104.29Z"/><path class="cls-3" d="M394.91,266.87c21.28.1,21.27,32.45,0,32.54C373.63,299.31,373.63,267,394.91,266.87Z"/><path class="cls-3" d="M519.52,266.4c21.28.1,21.27,32.45,0,32.54C498.24,298.84,498.24,266.49,519.52,266.4Z"/><path class="cls-2" d="M409.42,104.34c4,.85,1.59,8.89,11,33,4.46,13.63,6.92,17,13,28-1.19,7.12-33.88,14.31-42,5C383.23,158,390.85,108.7,409.42,104.34Z"/><path class="cls-2" d="M353.09,378c32.54-34.45,88.58,9.12,136-12,31.26-7.68,65.33,3.72,74.85,38.24,5.89,21.4,1.34,43.14-20.9,56.79-28.35,13.55-49.42-4.6-95.09-3.19-29,1.8-48.9,12.77-67.91,8.1C341.18,455.23,328.19,406.36,353.09,378Z"/><text class="cls-4" transform="translate(0 465.72)">600</text><text class="cls-5" transform="translate(365.18 438.32) scale(1.18 1)"><tspan xml:space="preserve">c  c</tspan></text><text class="cls-6" transform="translate(365.18 438.32) scale(1.18 1)"><tspan xml:space="preserve">c  c</tspan></text><text class="cls-7" transform="translate(583.44 459.37) scale(0.9 1)">木瓜牛奶</text><path d="M348.57,567.92c.49-4.5-4.91-6.81-9.84-8.58-22.52-8.39-3.84-32,12.9-19.92l-.36,7.8h-3.6L346,538.16l3.84,2v3c-12.3-12.24-26,6.8-7.38,11.52,25.08,10.43,3.16,32-14.82,20.4l.36-8.4h3.6l1.56,9.24-3.9-1.68v-2.88C335,577,348.44,576.9,348.57,567.92Z"/><path d="M362.49,577.34c.19-6.15.32-16.6,0-23l-4.92-.54v-2.1l9.06-3.6.9.6c-.24,8.53-.27,20.53,0,28.62Zm9.24-2.1v2.1h-13.8v-2.1c.86-.12,7.09-1.42,7.8-1.2ZM361,537.56c-.15-5,8.07-5,7.92,0C369,542.51,360.85,542.51,361,537.56Z"/><path d="M380.55,577.34c.19-6.15.32-16.6,0-23l-4.8-.54v-2.1l8.16-3.6.9.6c1.24,8.46.47,20.55.9,28.62Zm9.36-2.1v2.1h-13.8v-2.1c.86-.12,7.09-1.42,7.8-1.2Zm13.86-16c0,5.21,0,13.69.18,18.12h-5.16c.18-4.29.19-12.55.18-17.64.37-10.54-8.15-8.37-13.92-3.24h-1.26v-2.7h3.06l-2.58,1.08C390.46,546.51,404.67,543.87,403.77,559.22ZM402.15,574l6,1.2v2.1h-13.8v-2.1C395.2,575.12,401.45,573.82,402.15,574Z"/><path d="M417.51,562.64c-.67,11.94,12.41,15.61,18.06,7l1.44.72c-4.7,13.73-26.07,8-24.48-7.2,0-9.42,6.6-15.06,13.74-15.06,5.45-1,15.15,7.82,7.86,10-3.81.15-3.6-5.62-4.68-8l2.76,2.22C424.58,548.42,417.46,552.14,417.51,562.64Z"/><path d="M466.65,559.58a12.1,12.1,0,0,1-.42,3.36H444.09v-2.52h14.28c2.88,0,3.54-1.38,3.54-3.06a6.66,6.66,0,0,0-6.66-6.54c-3.84,0-8.28,3.24-8.28,11.82-.78,12,12.2,15.31,18.24,7.44l1.38,1.08c-6,12.25-26,7.42-24.72-7.74C440.73,546.5,466,541.6,466.65,559.58Z"/><path d="M510.27,575.24v2.1H488.13v-2.1C496.81,573.39,501.6,573.42,510.27,575.24ZM501,538l.84.6c-.38,11.55-.33,27.19-.06,38.7h-5.16c.28-8.29.15-25.86.18-34.38l-8,.66v-2.4Z"/><path d="M528.39,558.32c3.54,0,6.06-1.32,8.46-4.26l1,.42c-4.55,11.83-22.93,8.88-22.62-4.32,0-7.44,5.16-12.42,12.72-12.42,21.44,2.12,13.68,38.15-9.3,40.8l-.6-2.22c12.78-4.2,17.1-11,17.1-21.9,0-9.72-3-14-7.5-14C518,540,517.83,559.55,528.39,558.32Z"/><path d="M567.93,541.52l1,1.8H546.33v-4.8H571c2.16-.3-14.23,38.11-14.28,38.82H552l-.6-.6Z"/><path d="M595.53,566.12c.32-10.75-9.76-11.14-15.54-5.46l-1-.84c6.18-10.25,22-7.47,21.66,5.4,0,8.58-5.22,12.9-12.18,12.9-21.63-2-15.25-39.69,9.9-40.38l.36,1.86c-12.78,3.12-18,9.6-18,20.64,0,10.32,3,15.18,7.86,15.18C592.83,575.42,595.53,572.36,595.53,566.12Z"/></g></g></svg>